<svg width="20" height="29" viewBox="0 0 20 29" fill="none" xmlns="http://www.w3.org/2000/svg">
<path d="M8.57143 24.2857L7.85714 18.5714L7.14286 16.4286L7.14286 15.3571L0.535714 10.141L0.535714 11.9048C0.535714 12.4256 0.418527 12.8571 0.267857 12.8571C0.117188 12.8571 0 12.4256 0 11.9048L0 6.78571H0.535714L0.535714 7.5L7.85714 7.5V5.35714L4.28571 2.38094V0.833348L4.76192 0.357143L7.85714 0.357143V0.714286H8.57143V2.85714H8.69045L9.04759 0L10.9524 0L11.3095 2.85714H11.4286V0.714286H12.1429V0.357143L15.2381 0.357143L15.7143 0.833348V2.38098L12.1429 5.35714V7.5L19.4643 7.5V6.78571H20V11.9048C20 12.4256 19.8828 12.8571 19.7321 12.8571C19.5815 12.8571 19.4643 12.4256 19.4643 11.9048V10.141L12.8571 15.3571V16.4286L12.1429 18.5714L11.4286 24.2857C10.4762 28.5714 10.2418 28.5714 10 28.5714C9.75817 28.5714 9.5238 28.5714 8.57143 24.2857Z" fill="#FF0000"/>
</svg>
