<svg width="8" height="20" viewBox="0 0 8 20" fill="none" xmlns="http://www.w3.org/2000/svg">
<path d="M6.66651 7.58799V6H1.33325V7.58799L0.254562 8.66669H7.7452L6.66651 7.58799Z" fill="white"/>
<path d="M7.99992 9.33325H0V16.6666H7.99992V9.33325Z" fill="white"/>
<path d="M5.48973 1.65534L4.63844 0.237686C4.55377 0.0966629 4.29444 0 3.99977 0C3.70573 0 3.44577 0.0966629 3.3611 0.237646L2.51044 1.6553C1.79314 2.85096 1.41713 4.08697 1.3578 5.3333H6.64245C6.58304 4.087 6.20703 2.851 5.48973 1.65534Z" fill="white"/>
<path d="M7.40752 18.1954C7.42817 18.168 7.45017 18.141 7.46415 18.1124L7.8535 17.3334H0.146185L0.534819 18.1124C0.549513 18.141 0.570799 18.168 0.592165 18.1954C0.233474 18.346 0.000198364 18.5693 0.000198364 18.8214V19.1787C0.000198364 19.6317 0.73688 20 1.64282 20H6.35742C7.26272 20 8.00004 19.6317 8.00004 19.1787V18.8214C8.0002 18.5693 7.76692 18.346 7.40752 18.1954Z" fill="white"/>
</svg>
