<svg width="348" height="512" viewBox="0 0 348 512" fill="none" xmlns="http://www.w3.org/2000/svg">
<path d="M143.938 85.826L214.44 367.833L347.176 456.323V322.938L143.938 85.826Z" fill="#1E2E3B"/>
<path d="M0.823975 322.938V456.323L133.56 367.833L204.062 85.826L0.823975 322.938Z" fill="#3C5D76"/>
<path d="M174 481.882C207.267 481.882 234.235 454.914 234.235 421.647C234.235 388.38 207.267 361.412 174 361.412C140.733 361.412 113.765 388.38 113.765 421.647C113.765 454.914 140.733 481.882 174 481.882Z" fill="#FFDA44"/>
<path d="M211.647 391.529C211.647 409.824 202.646 428.355 184.895 446.607C181.236 450.37 177.533 453.767 174 456.766C170.467 453.768 166.764 450.37 163.105 446.607C145.354 428.356 136.353 409.824 136.353 391.529H211.647ZM174 346.353L91.176 391.529C91.176 466.824 174 512 174 512C174 512 256.824 466.824 256.824 391.529L174 346.353Z" fill="#FF9811"/>
<path d="M174 346.353V391.529H211.647C211.647 409.824 202.646 428.355 184.895 446.607C181.236 450.37 177.533 453.767 174 456.766V512C174 512 256.824 466.824 256.824 391.529L174 346.353Z" fill="#FF5023"/>
<path d="M256.824 391.529V120.471C256.824 45.176 174 0 174 0C174 0 91.176 45.176 91.176 120.471V391.53H256.824V391.529Z" fill="#CCE9F9"/>
<path d="M256.824 391.529V120.471C256.824 45.176 174 0 174 0V391.529H256.824Z" fill="#93C7EF"/>
<path d="M196.588 225.882H151.412V331.294H196.588V225.882Z" fill="#1E2E3B"/>
<path d="M256.823 346.353H91.176V391.529H256.823V346.353Z" fill="#78B9EB"/>
<path d="M256.824 346.353H174V391.529H256.824V346.353Z" fill="#5A8BB0"/>
</svg>
